<svg width="321" height="286" viewBox="0 0 321 286" fill="none" xmlns="http://www.w3.org/2000/svg">
<path d="M47.0167 260.656C109.694 293.396 211.315 293.396 273.992 260.656C336.669 227.916 336.669 174.821 273.992 142.081C211.315 109.342 109.694 109.335 47.0098 142.081C-15.6746 174.828 -15.6676 227.909 47.0167 260.656Z" fill="#FAFAFA"/>
<path d="M161.664 277.081C204.005 277.081 238.328 260.721 238.328 240.541C238.328 220.36 204.005 204 161.664 204C119.324 204 85 220.36 85 240.541C85 260.721 119.324 277.081 161.664 277.081Z" fill="#F4F4F4"/>
<path d="M48.2894 154.029L51.5022 153.215C52.5252 148.971 53.1928 144.649 53.498 140.294C54.3255 129.863 50.2713 121.991 45.2226 118.737C39.2282 114.877 36.0849 118.403 36.4465 121.177C36.829 124.105 39.9931 128.243 41.5022 131.101C43.6858 135.239 46.9959 141.511 48.2894 154.029Z" fill="#A480F2"/>
<path opacity="0.2" d="M48.2894 154.029L51.5022 153.215C52.5252 148.971 53.1928 144.649 53.498 140.294C54.3255 129.863 50.2713 121.991 45.2226 118.737C39.2282 114.877 36.0849 118.403 36.4465 121.177C36.829 124.105 39.9931 128.243 41.5022 131.101C43.6858 135.239 46.9959 141.511 48.2894 154.029Z" fill="black"/>
<path d="M49.8541 153.876H49.8054C49.7747 153.87 49.7456 153.858 49.7195 153.841C49.6934 153.824 49.671 153.802 49.6536 153.776C49.6361 153.75 49.624 153.721 49.6178 153.69C49.6116 153.66 49.6116 153.628 49.6176 153.597C53.4563 135.037 45.5703 121.803 40.6955 119.154C40.6414 119.123 40.6015 119.072 40.5846 119.012C40.5677 118.953 40.575 118.888 40.6051 118.834C40.619 118.806 40.6385 118.781 40.6624 118.761C40.6862 118.74 40.714 118.725 40.744 118.716C40.774 118.707 40.8055 118.704 40.8366 118.708C40.8677 118.711 40.8978 118.721 40.925 118.737C46.0571 121.518 54.0126 134.654 50.0836 153.695C50.07 153.746 50.0403 153.791 49.999 153.824C49.9576 153.856 49.9067 153.874 49.8541 153.876Z" fill="white"/>
<path d="M48.2895 154.029C48.52 150.549 48.0688 147.057 46.9612 143.75C45.1392 138.639 42.2811 133.903 36.5301 132.151C30.779 130.399 26.3075 134.557 29.1378 138.368C31.9682 142.179 42.5036 144.55 44.5551 156.504L48.2895 154.029Z" fill="#A480F2"/>
<path d="M46.6551 155.357C46.593 155.35 46.536 155.319 46.4959 155.271C46.4558 155.223 46.4356 155.162 46.4396 155.1C47.3019 145.475 40.8067 135.927 32.2671 134.237C32.2364 134.231 32.2072 134.22 32.1812 134.202C32.1551 134.185 32.1328 134.163 32.1153 134.137C32.0978 134.111 32.0857 134.082 32.0795 134.052C32.0733 134.021 32.0733 133.99 32.0793 133.959C32.0842 133.928 32.0955 133.898 32.1124 133.872C32.1293 133.845 32.1515 133.822 32.1776 133.805C32.2037 133.787 32.2331 133.775 32.2641 133.769C32.295 133.764 32.3268 133.764 32.3575 133.771C41.1266 135.496 47.7887 145.273 46.9124 155.127C46.9127 155.16 46.906 155.192 46.8927 155.222C46.8795 155.252 46.8601 155.279 46.8357 155.3C46.8114 155.322 46.7827 155.338 46.7515 155.348C46.7204 155.358 46.6875 155.361 46.6551 155.357Z" fill="white"/>
<path d="M256.544 231.699C256.544 231.699 257.636 221.379 264.069 214.446C270.501 207.513 277.379 207.575 280.063 210.065C282.747 212.554 279.986 216.428 274.013 220.204C268.895 223.438 262.128 230.774 260.049 235.726L256.544 231.699Z" fill="#A480F2"/>
<path opacity="0.2" d="M256.544 231.699C256.544 231.699 257.636 221.379 264.069 214.446C270.501 207.513 277.379 207.575 280.063 210.065C282.747 212.554 279.986 216.428 274.013 220.204C268.895 223.438 262.128 230.774 260.049 235.726L256.544 231.699Z" fill="black"/>
<path d="M258.025 233.646H257.963C257.902 233.633 257.849 233.596 257.815 233.544C257.782 233.492 257.77 233.429 257.782 233.368C260.515 222.84 269.694 212.235 277.427 210.677C277.458 210.67 277.489 210.67 277.52 210.676C277.551 210.682 277.58 210.693 277.606 210.711C277.632 210.728 277.655 210.75 277.673 210.776C277.69 210.801 277.703 210.83 277.709 210.861C277.715 210.892 277.716 210.923 277.71 210.954C277.704 210.985 277.692 211.014 277.675 211.04C277.658 211.066 277.636 211.089 277.61 211.106C277.584 211.124 277.555 211.136 277.525 211.143C269.952 212.673 260.939 223.118 258.241 233.493C258.224 233.537 258.195 233.575 258.157 233.603C258.118 233.63 258.072 233.645 258.025 233.646Z" fill="white"/>
<path d="M257.657 255.885C257.657 255.885 262.407 257.235 265.835 254.877C268.763 252.86 268.032 250.705 268.373 249.057C268.714 247.408 270.146 246.504 272.546 246.191C275.494 245.809 278.248 245.343 278.763 242.228C279.222 239.481 274.687 237.999 276.037 235.315C277.059 233.292 279.354 231.942 281.245 230.447C283.137 228.952 282.01 225.684 277.49 225.677C271.885 225.677 270.717 227.763 268.22 228.09C265.724 228.417 264.326 226.977 261.593 227.339C258.568 227.735 257.087 230.628 257.017 234.237L257.657 255.885Z" fill="#A480F2"/>
<path d="M257.344 245.586H257.267C257.237 245.576 257.21 245.56 257.186 245.539C257.162 245.518 257.143 245.493 257.13 245.464C257.116 245.436 257.108 245.405 257.107 245.373C257.105 245.342 257.11 245.31 257.121 245.28C259.618 238.236 273.081 228.431 278.721 227.429C278.752 227.423 278.784 227.424 278.815 227.43C278.846 227.437 278.875 227.45 278.901 227.468C278.927 227.486 278.949 227.509 278.966 227.536C278.983 227.563 278.994 227.593 278.999 227.624C279.005 227.655 279.005 227.687 278.998 227.718C278.991 227.749 278.979 227.778 278.96 227.804C278.942 227.83 278.919 227.852 278.892 227.869C278.865 227.886 278.835 227.897 278.804 227.902C273.241 228.89 260.028 238.514 257.573 245.426C257.555 245.473 257.524 245.513 257.483 245.542C257.442 245.57 257.394 245.586 257.344 245.586Z" fill="white"/>
<path d="M275.744 241.456C275.708 241.465 275.67 241.465 275.633 241.456C272.156 239.655 266.203 238.34 261.642 239.321C261.582 239.328 261.521 239.312 261.472 239.277C261.423 239.242 261.389 239.19 261.376 239.131C261.363 239.073 261.372 239.011 261.402 238.959C261.432 238.906 261.48 238.867 261.537 238.848C266.21 237.847 272.274 239.189 275.856 241.032C275.884 241.046 275.909 241.065 275.929 241.089C275.95 241.112 275.965 241.14 275.975 241.17C275.984 241.199 275.988 241.231 275.986 241.262C275.983 241.293 275.974 241.324 275.96 241.351C275.935 241.385 275.903 241.412 275.865 241.43C275.828 241.448 275.786 241.457 275.744 241.456Z" fill="white"/>
<path d="M264.041 236.845C263.978 236.845 263.918 236.82 263.873 236.776C263.829 236.732 263.804 236.671 263.804 236.609C263.804 232.401 262.413 230.35 262.379 230.35C262.342 230.298 262.327 230.234 262.337 230.172C262.348 230.109 262.383 230.053 262.434 230.016C262.486 229.979 262.55 229.964 262.613 229.975C262.675 229.985 262.731 230.02 262.768 230.072C262.831 230.155 264.291 232.248 264.284 236.623C264.279 236.683 264.251 236.74 264.206 236.781C264.161 236.823 264.102 236.845 264.041 236.845Z" fill="white"/>
<path d="M88.2617 0.530588L88.6789 0.287196C89.0518 0.0983859 89.464 0 89.882 0C90.3 0 90.7121 0.0983859 91.085 0.287196L159.298 39.6753C159.648 39.9041 159.94 40.2122 160.149 40.5746C160.358 40.9371 160.478 41.3437 160.501 41.7615V136.831C160.477 137.249 160.356 137.655 160.147 138.017C159.938 138.379 159.647 138.688 159.298 138.917L158.881 139.154C158.509 139.346 158.096 139.446 157.678 139.446C157.259 139.446 156.846 139.346 156.475 139.154L88.2617 99.7727C87.9106 99.5447 87.6185 99.2368 87.4094 98.8742C87.2003 98.5115 87.0801 98.1045 87.0586 97.6865V2.61682C87.0806 2.1989 87.2011 1.79209 87.4101 1.42954C87.6192 1.067 87.911 0.758981 88.2617 0.530588Z" fill="#FAFAFA"/>
<path d="M160.501 89.2928V41.7615C160.489 41.3409 160.367 40.9307 160.146 40.5723L156.252 42.8255V139.036L156.468 139.154C156.839 139.346 157.252 139.446 157.671 139.446C158.089 139.446 158.502 139.346 158.874 139.154L159.291 138.917C159.64 138.688 159.931 138.379 160.14 138.017C160.349 137.655 160.47 137.249 160.494 136.831L160.501 89.2928Z" fill="#E0E0E0"/>
<path d="M88.2615 1.92139L156.474 41.3025C156.824 41.5321 157.115 41.8404 157.324 42.2027C157.533 42.565 157.654 42.9712 157.677 43.3887V138.458C157.677 139.23 157.135 139.543 156.474 139.154L88.2615 99.7727C87.9105 99.5447 87.6184 99.2368 87.4093 98.8741C87.2002 98.5115 87.0799 98.1045 87.0585 97.6864V2.6168C87.0585 1.85185 87.5939 1.53891 88.2615 1.92139Z" fill="#F5F5F5"/>
<path d="M96.7318 13.34L147.997 42.9367C148.349 43.1647 148.641 43.4726 148.85 43.8353C149.059 44.1979 149.179 44.6049 149.201 45.023V48.7643C149.201 49.5292 148.665 49.8422 147.997 49.4597L96.7318 19.8769C96.3822 19.6473 96.0913 19.339 95.8824 18.9767C95.6735 18.6144 95.5523 18.2082 95.5287 17.7907V14.0355C95.5287 13.2635 96.0711 12.9228 96.7318 13.34Z" fill="#E0E0E0"/>
<path d="M107.588 46.5647C110.345 44.9728 110.345 39.8103 107.587 35.034C104.83 30.2577 100.359 27.6763 97.6015 29.2683C94.8441 30.8602 94.8444 36.0227 97.6019 40.799C100.36 45.5753 104.83 48.1567 107.588 46.5647Z" fill="#E0E0E0"/>
<path d="M102.65 32.3943C101.259 31.6016 100.174 32.2414 100.174 33.8199C100.218 34.6798 100.466 35.5169 100.896 36.2627C101.327 37.0085 101.927 37.6417 102.65 38.1106C104.04 38.9034 105.125 38.2636 105.125 36.7198C105.085 35.8542 104.84 35.0106 104.409 34.2585C103.979 33.5064 103.376 32.8675 102.65 32.3943Z" fill="#A480F2"/>
<path d="M103.296 39.2719L101.906 38.4583C99.6524 37.1648 97.8304 38.2149 97.8304 40.8088V41.1634C99.0002 43.1639 100.64 44.8491 102.608 46.073C104.451 47.137 106.085 47.283 107.378 46.6711V46.3025C107.297 44.8925 106.886 43.5213 106.177 42.2999C105.467 41.0786 104.481 40.0412 103.296 39.2719Z" fill="#A480F2"/>
<path d="M97.0377 49.3971L108.164 55.8157C108.593 56.086 108.953 56.4534 109.214 56.8883C109.475 57.3232 109.63 57.8134 109.666 58.3192C109.666 59.2163 108.971 59.5571 108.164 59.0772L97.0377 52.6655C96.6073 52.3961 96.2464 52.029 95.9842 51.594C95.722 51.1591 95.566 50.6685 95.5287 50.1621C95.5287 49.258 96.2032 48.9173 97.0377 49.3971Z" fill="#E0E0E0"/>
<path d="M97.0377 55.9201L108.164 62.3387C108.593 62.6083 108.952 62.9746 109.212 63.4082C109.473 63.8418 109.629 64.3306 109.666 64.8352C109.666 65.7393 108.971 66.08 108.164 65.6002L97.0377 59.1815C96.6069 58.9125 96.2457 58.5455 95.9835 58.1105C95.7212 57.6755 95.5654 57.1847 95.5287 56.6781C95.5287 55.781 96.2032 55.4402 97.0377 55.9201Z" fill="#E0E0E0"/>
<path d="M97.0376 62.436L108.164 68.8547C108.589 69.1237 108.946 69.4881 109.205 69.9191C109.465 70.3501 109.62 70.8357 109.659 71.3373C109.659 72.2344 108.964 72.5751 108.157 72.0953L97.0306 65.6836C96.6002 65.4141 96.2393 65.0471 95.9771 64.6121C95.7149 64.1772 95.5589 63.6866 95.5216 63.1801C95.5286 62.297 96.2031 61.9562 97.0376 62.436Z" fill="#E0E0E0"/>
<path d="M97.0376 68.959L108.164 75.3777C108.591 75.648 108.949 76.0147 109.208 76.4482C109.468 76.8818 109.623 77.3702 109.659 77.8742C109.659 78.7782 108.964 79.119 108.157 78.6391L97.0306 72.2205C96.5998 71.9514 96.2386 71.5844 95.9764 71.1494C95.7142 70.7144 95.5583 70.2236 95.5216 69.717C95.5286 68.8199 96.2031 68.4792 97.0376 68.959Z" fill="#E0E0E0"/>
<path d="M97.0377 78.7504L108.164 85.1621C108.601 85.4488 108.965 85.8342 109.226 86.2871C109.487 86.7401 109.638 87.248 109.666 87.7699V94.0773C109.666 95.037 108.971 95.4264 108.164 94.9466L97.0377 88.5349C96.5986 88.2498 96.233 87.8649 95.9708 87.4118C95.7086 86.9586 95.5571 86.4499 95.5287 85.9271V79.6197C95.5287 78.6531 96.2032 78.2915 97.0377 78.7504Z" fill="#A480F2"/>
<path d="M119.631 36.3442L147.698 52.5612C148.127 52.8308 148.486 53.1971 148.746 53.6307C149.007 54.0643 149.163 54.5531 149.2 55.0578C149.2 55.9618 148.505 56.3025 147.698 55.8227L119.631 39.6196C119.203 39.3501 118.844 38.9837 118.583 38.5501C118.322 38.1165 118.167 37.6278 118.129 37.1231C118.129 36.2052 118.804 35.8714 119.631 36.3442Z" fill="#A480F2"/>
<path d="M119.631 42.8673L147.698 59.0703C148.127 59.3399 148.486 59.7062 148.746 60.1398C149.007 60.5734 149.163 61.0622 149.2 61.5669C149.2 62.4709 148.505 62.8116 147.698 62.3318L119.631 46.1287C119.203 45.8592 118.844 45.4928 118.583 45.0592C118.322 44.6256 118.167 44.1369 118.129 43.6322C118.129 42.7282 118.804 42.3874 119.631 42.8673Z" fill="#A480F2"/>
<path d="M119.631 49.3901L147.698 65.5932C148.127 65.8628 148.486 66.2291 148.746 66.6627C149.007 67.0963 149.163 67.5851 149.2 68.0897C149.2 68.9938 148.505 69.3345 147.698 68.8547L119.631 52.6516C119.203 52.382 118.844 52.0157 118.583 51.5821C118.322 51.1485 118.167 50.6597 118.129 50.1551C118.129 49.2511 118.804 48.9103 119.631 49.3901Z" fill="#A480F2"/>
<path d="M215.675 60.6976L218.317 59.1746C218.784 58.9382 219.3 58.8149 219.823 58.8149C220.346 58.8149 220.862 58.9382 221.328 59.1746L280.438 93.3193C280.878 93.6044 281.243 93.9892 281.505 94.4424C281.768 94.8956 281.919 95.4043 281.947 95.9271V170.732C281.919 171.255 281.768 171.764 281.505 172.217C281.243 172.67 280.878 173.055 280.438 173.34L277.803 174.863C277.336 175.1 276.82 175.223 276.297 175.223C275.774 175.223 275.258 175.1 274.792 174.863L215.647 140.718C215.21 140.432 214.846 140.046 214.585 139.593C214.324 139.141 214.174 138.633 214.145 138.111V63.3053C214.177 62.7809 214.332 62.2714 214.598 61.8183C214.864 61.3652 215.233 60.9812 215.675 60.6976Z" fill="#455A64"/>
<path d="M281.968 133.326V95.9271C281.951 95.4008 281.798 94.888 281.523 94.4389L273.491 99.0773V174.098L274.812 174.863C275.279 175.1 275.795 175.223 276.318 175.223C276.841 175.223 277.357 175.1 277.824 174.863L280.459 173.34C280.898 173.055 281.264 172.67 281.526 172.217C281.788 171.764 281.94 171.255 281.968 170.732V133.326Z" fill="#263238"/>
<path d="M215.675 62.4361L274.785 96.5808C275.222 96.8675 275.585 97.2528 275.846 97.7058C276.107 98.1587 276.258 98.6666 276.287 99.1886V173.994C276.287 174.954 275.591 175.343 274.785 174.863L215.64 140.719C215.203 140.432 214.839 140.046 214.578 139.593C214.317 139.141 214.167 138.633 214.138 138.111V63.3053C214.173 62.3457 214.847 61.9563 215.675 62.4361Z" fill="#37474F"/>
<path d="M270.571 98.9938L219.91 69.7449C219.075 69.265 218.408 69.6545 218.408 70.6141V127.485C218.436 128.007 218.587 128.515 218.848 128.968C219.109 129.421 219.473 129.806 219.91 130.093L270.571 159.342C271.405 159.821 272.08 159.432 272.08 158.472V101.602C272.051 101.079 271.9 100.57 271.637 100.117C271.375 99.6638 271.01 99.279 270.571 98.9938Z" fill="white"/>
<path d="M230.132 82.4639C231.55 83.391 232.73 84.6391 233.576 86.107C234.421 87.575 234.909 89.2215 235 90.9132C235 94.0286 232.817 95.2873 230.132 93.7296C228.714 92.8033 227.534 91.5554 226.688 90.0873C225.842 88.6192 225.354 86.9723 225.265 85.2803C225.258 82.1579 227.441 80.8992 230.132 82.4639Z" fill="#A480F2"/>
<path d="M242.803 117.068L233.762 103.396C232.295 101.184 229.764 101.066 228.102 103.138L218.408 115.148V127.506C218.436 128.028 218.588 128.537 218.85 128.99C219.112 129.444 219.478 129.828 219.917 130.113L270.571 159.321C271.405 159.801 272.08 159.411 272.08 158.451V126.393L259.493 99.7518C258.359 97.3527 256.231 97.1858 254.75 99.3833L242.803 117.068Z" fill="#A480F2"/>
<path d="M228.484 229.446L245.056 219.877C245.933 219.306 246.663 218.536 247.186 217.63C247.709 216.724 248.011 215.707 248.067 214.662V120.496C248.01 119.451 247.708 118.435 247.184 117.528C246.661 116.622 245.932 115.852 245.056 115.28L132.441 50.2594C131.508 49.786 130.476 49.5392 129.43 49.5392C128.383 49.5392 127.352 49.786 126.419 50.2594L109.84 59.8283C108.964 60.4001 108.235 61.1703 107.712 62.0764C107.188 62.9825 106.886 63.9991 106.829 65.0438V159.209C106.886 160.254 107.188 161.271 107.712 162.177C108.235 163.083 108.964 163.853 109.84 164.425L222.497 229.446C223.425 229.914 224.451 230.157 225.49 230.157C226.53 230.157 227.556 229.914 228.484 229.446Z" fill="#455A64"/>
<path d="M248.046 120.496C248.01 119.448 247.709 118.426 247.17 117.526L222.65 131.699V229.529C223.564 229.958 224.564 230.172 225.573 230.158C226.583 230.144 227.576 229.9 228.477 229.446L245.063 219.87C245.934 219.297 246.658 218.527 247.177 217.622C247.695 216.717 247.993 215.703 248.046 214.662V120.496Z" fill="#37474F"/>
<path d="M222.462 128.361L109.84 63.3401C108.178 62.3805 106.829 63.1593 106.829 65.0787V159.209C106.886 160.254 107.188 161.271 107.712 162.177C108.235 163.083 108.964 163.853 109.84 164.425L222.497 229.446C224.159 230.406 225.508 229.627 225.508 227.707V133.542C225.442 132.5 225.131 131.488 224.602 130.588C224.073 129.689 223.34 128.926 222.462 128.361Z" fill="#37474F"/>
<path d="M232.344 122.624C233.22 123.196 233.949 123.966 234.472 124.872C234.995 125.778 235.298 126.795 235.355 127.839V225.475L238.178 223.848V126.205C238.121 125.16 237.819 124.144 237.296 123.238C236.773 122.332 236.043 121.561 235.167 120.99L119.534 54.2302L116.711 55.8644L232.344 122.624Z" fill="#263238"/>
<path d="M235.167 120.99L119.729 54.3415L116.815 55.9201L232.351 122.624C233.24 123.179 233.973 123.952 234.479 124.87L237.302 123.243C236.796 122.32 236.061 121.544 235.167 120.99Z" fill="#37474F"/>
<path d="M217.664 105.99L215.675 104.842C215.208 104.606 214.692 104.483 214.169 104.483C213.646 104.483 213.13 104.606 212.664 104.842L205.014 109.251L203.742 108.869V110.496C203.759 110.683 203.826 110.863 203.936 111.016C204.046 111.169 204.195 111.289 204.367 111.365L207.003 112.888C207.47 113.125 207.985 113.248 208.509 113.248C209.032 113.248 209.548 113.125 210.014 112.888L218.303 108.104C218.474 108.027 218.622 107.906 218.731 107.753C218.839 107.6 218.906 107.421 218.922 107.234V105.6L217.664 105.99Z" fill="#263238"/>
<path d="M218.317 104.717L215.675 103.194C215.208 102.958 214.692 102.834 214.169 102.834C213.646 102.834 213.13 102.958 212.664 103.194L204.381 107.985C204.199 108.045 204.04 108.161 203.927 108.317C203.814 108.472 203.754 108.659 203.754 108.851C203.754 109.043 203.814 109.23 203.927 109.386C204.04 109.541 204.199 109.657 204.381 109.717L207.017 111.247C207.484 111.483 207.999 111.607 208.523 111.607C209.046 111.607 209.561 111.483 210.028 111.247L218.317 106.456C218.499 106.394 218.657 106.277 218.769 106.121C218.88 105.965 218.94 105.778 218.94 105.586C218.94 105.394 218.88 105.207 218.769 105.052C218.657 104.896 218.499 104.779 218.317 104.717Z" fill="#455A64"/>
<path d="M149.868 66.8519L147.907 65.7045C147.439 65.468 146.922 65.3447 146.398 65.3447C145.874 65.3447 145.357 65.468 144.889 65.7045L137.239 70.1134L135.967 69.7309V71.3373C135.984 71.5248 136.051 71.7042 136.161 71.8571C136.272 72.0099 136.42 72.1306 136.593 72.2066L139.228 73.7295C139.695 73.966 140.211 74.0892 140.734 74.0892C141.257 74.0892 141.773 73.966 142.239 73.7295L150.529 68.9451C150.701 68.8693 150.849 68.7486 150.958 68.5956C151.067 68.4426 151.132 68.263 151.148 68.0758V66.4694L149.868 66.8519Z" fill="#263238"/>
<path d="M150.522 65.6001L147.879 64.0702C147.412 63.8338 146.897 63.7106 146.374 63.7106C145.85 63.7106 145.335 63.8338 144.868 64.0702L136.586 68.8616C136.404 68.9233 136.246 69.0402 136.134 69.1962C136.023 69.3521 135.963 69.5391 135.963 69.7309C135.963 69.9227 136.023 70.1097 136.134 70.2656C136.246 70.4215 136.404 70.5385 136.586 70.6001L139.221 72.1231C139.688 72.3595 140.204 72.4827 140.727 72.4827C141.25 72.4827 141.766 72.3595 142.232 72.1231L150.522 67.3387C150.703 67.277 150.861 67.16 150.973 67.0041C151.085 66.8482 151.145 66.6612 151.145 66.4694C151.145 66.2776 151.085 66.0906 150.973 65.9347C150.861 65.7788 150.703 65.6618 150.522 65.6001Z" fill="#455A64"/>
<path d="M171.801 66.4694V76.2539L166.155 79.5153V64.5918C166.155 63.8199 166.69 63.5139 167.358 63.8964L171.801 66.4694Z" fill="#263238"/>
<path d="M201.454 76.838V95.023L197.281 97.45L194.458 95.8158V80.8992C194.434 80.4817 194.313 80.0755 194.104 79.7132C193.895 79.3509 193.604 79.0426 193.255 78.813L171.801 66.4694L167.378 63.8964C166.683 63.514 166.175 63.8199 166.175 64.5918V79.5084L163.345 77.8742V59.6961C163.338 59.6175 163.338 59.5384 163.345 59.4597C163.401 59.0848 163.536 58.726 163.741 58.4071C163.946 58.0882 164.216 57.8165 164.534 57.6099L166.321 56.5738C166.694 56.3849 167.107 56.2866 167.525 56.2866C167.943 56.2866 168.355 56.3849 168.728 56.5738L200.216 74.7518C200.572 74.9771 200.87 75.2836 201.085 75.6462C201.3 76.0089 201.427 76.4173 201.454 76.838Z" fill="#455A64"/>
<path d="M197.226 79.265V97.45L194.402 95.8158V80.8992C194.379 80.4817 194.257 80.0755 194.048 79.7132C193.84 79.3509 193.549 79.0426 193.199 78.813L171.801 66.4694L167.378 63.8964C166.683 63.514 166.175 63.8199 166.175 64.5918V79.5084L163.345 77.8742V59.6961C163.338 59.6175 163.338 59.5384 163.345 59.4597C163.449 58.8686 163.943 58.66 164.534 59.0007L196.022 77.1788C196.372 77.4088 196.662 77.7172 196.871 78.0794C197.08 78.4416 197.201 78.8476 197.226 79.265Z" fill="#37474F"/>
<path d="M239.597 262.158L242.42 260.524L239.597 179.126C239.567 178.604 239.415 178.096 239.153 177.643C238.891 177.19 238.526 176.805 238.088 176.518L184.604 145.635C183.666 145.034 182.937 144.157 182.518 143.125L180.828 138.257C180.41 137.229 179.681 136.358 178.741 135.767L153.533 121.664C152.698 121.198 152.01 121.595 152.01 122.554V209.863C152.04 210.386 152.193 210.893 152.455 211.346C152.717 211.799 153.081 212.184 153.519 212.471L239.597 262.158Z" fill="#A480F2"/>
<path opacity="0.2" d="M239.597 262.158L242.42 260.524L239.597 179.126C239.567 178.604 239.415 178.096 239.153 177.643C238.891 177.19 238.526 176.805 238.088 176.518L184.604 145.635C183.666 145.034 182.937 144.157 182.518 143.125L180.828 138.257C180.41 137.229 179.681 136.358 178.741 135.767L153.533 121.664C152.698 121.198 152.01 121.595 152.01 122.554V209.863C152.04 210.386 152.193 210.893 152.455 211.346C152.717 211.799 153.081 212.184 153.519 212.471L239.597 262.158Z" fill="black"/>
<path d="M198.429 124.23L258.164 158.723C258.516 158.951 258.808 159.259 259.017 159.621C259.226 159.984 259.346 160.391 259.368 160.809V259.14C259.368 259.912 258.832 260.218 258.164 259.836L198.429 225.35C198.079 225.121 197.788 224.813 197.579 224.45C197.37 224.088 197.249 223.682 197.226 223.264V124.926C197.226 124.189 197.761 123.848 198.429 124.23Z" fill="white"/>
<g opacity="0.5">
<path d="M258.707 260.35C258.461 260.34 258.222 260.269 258.011 260.141L198.276 225.649C197.87 225.392 197.532 225.041 197.29 224.626C197.048 224.211 196.909 223.744 196.885 223.264V124.926C196.854 124.714 196.887 124.497 196.981 124.304C197.074 124.111 197.224 123.95 197.409 123.843C197.595 123.736 197.809 123.687 198.023 123.703C198.237 123.719 198.441 123.798 198.609 123.931L258.345 158.417C258.751 158.676 259.089 159.028 259.331 159.444C259.573 159.86 259.712 160.328 259.736 160.809V259.14C259.753 259.351 259.713 259.562 259.622 259.753C259.53 259.943 259.389 260.106 259.214 260.225C259.06 260.312 258.884 260.355 258.707 260.35ZM197.893 124.418C197.845 124.407 197.795 124.407 197.747 124.418C197.682 124.478 197.632 124.553 197.602 124.637C197.572 124.72 197.562 124.81 197.573 124.898V223.264C197.599 223.616 197.705 223.958 197.884 224.263C198.062 224.568 198.308 224.828 198.602 225.023L258.338 259.516C258.409 259.571 258.493 259.608 258.581 259.622C258.67 259.637 258.761 259.629 258.846 259.599C258.912 259.539 258.962 259.465 258.993 259.381C259.023 259.297 259.032 259.207 259.02 259.119V160.809C258.998 160.452 258.894 160.105 258.715 159.794C258.536 159.484 258.288 159.22 257.99 159.022L198.255 124.536C198.147 124.464 198.022 124.423 197.893 124.418Z" fill="#E0E0E0"/>
</g>
<path d="M204.381 137.45L232.441 153.653C232.871 153.923 233.231 154.29 233.492 154.725C233.753 155.16 233.908 155.651 233.943 156.157C233.943 157.054 233.248 157.394 232.441 156.915L204.381 140.719C203.951 140.449 203.59 140.082 203.328 139.647C203.066 139.212 202.91 138.722 202.872 138.215C202.844 137.311 203.54 136.97 204.381 137.45Z" fill="#37474F"/>
<path d="M204.381 147.241L252.219 174.856C252.649 175.125 253.009 175.491 253.271 175.924C253.534 176.358 253.69 176.847 253.728 177.353C253.728 178.257 253.032 178.598 252.226 178.118L204.388 150.503C203.957 150.234 203.596 149.867 203.334 149.432C203.072 148.997 202.916 148.506 202.879 147.999C202.844 147.137 203.54 146.762 204.381 147.241Z" fill="#E0E0E0"/>
<path d="M204.381 157.026L252.219 184.641C252.649 184.909 253.009 185.275 253.271 185.709C253.534 186.142 253.69 186.632 253.728 187.137C253.728 188.041 253.032 188.382 252.226 187.902L204.388 160.287C203.957 160.018 203.596 159.651 203.334 159.216C203.072 158.781 202.916 158.291 202.879 157.784C202.844 156.873 203.54 156.546 204.381 157.026Z" fill="#E0E0E0"/>
<path d="M204.381 166.81L252.219 194.425C252.649 194.694 253.011 195.061 253.273 195.496C253.535 195.931 253.691 196.422 253.728 196.929C253.728 197.826 253.032 198.166 252.226 197.687L204.381 170.086C203.951 169.817 203.591 169.451 203.329 169.018C203.066 168.584 202.91 168.095 202.872 167.589C202.844 166.671 203.54 166.331 204.381 166.81Z" fill="#E0E0E0"/>
<path d="M204.381 176.595L252.219 204.21C252.649 204.479 253.011 204.846 253.273 205.281C253.535 205.716 253.691 206.206 253.728 206.713C253.728 207.61 253.032 207.951 252.226 207.471L204.388 179.856C203.958 179.588 203.598 179.222 203.335 178.788C203.073 178.355 202.917 177.865 202.879 177.36C202.844 176.456 203.54 176.115 204.381 176.595Z" fill="#E0E0E0"/>
<path d="M204.381 186.379L252.219 213.994C252.649 214.263 253.01 214.631 253.272 215.065C253.534 215.5 253.69 215.991 253.728 216.497C253.728 217.402 253.032 217.742 252.226 217.262L204.388 189.641C203.958 189.372 203.598 189.006 203.335 188.573C203.073 188.139 202.917 187.65 202.879 187.144C202.844 186.24 203.54 185.899 204.381 186.379Z" fill="#E0E0E0"/>
<path d="M204.381 196.171L252.219 223.785C252.649 224.054 253.009 224.42 253.271 224.853C253.534 225.287 253.69 225.777 253.728 226.282C253.728 227.186 253.032 227.527 252.226 227.047L204.381 199.432C203.95 199.163 203.589 198.796 203.327 198.361C203.065 197.926 202.909 197.435 202.872 196.929C202.844 196.032 203.54 195.691 204.381 196.171Z" fill="#E0E0E0"/>
<path d="M204.381 205.955L252.219 233.57C252.649 233.838 253.009 234.204 253.271 234.638C253.534 235.072 253.69 235.561 253.728 236.066C253.728 236.97 253.032 237.311 252.226 236.831L204.388 209.217C203.957 208.947 203.596 208.58 203.334 208.145C203.072 207.71 202.916 207.22 202.879 206.713C202.844 205.816 203.54 205.475 204.381 205.955Z" fill="#E0E0E0"/>
<path d="M189.951 129.119L249.687 163.611C250.039 163.839 250.332 164.147 250.543 164.509C250.753 164.872 250.874 165.279 250.897 165.698V264.029C250.897 264.794 250.355 265.107 249.687 264.724L189.951 230.232C189.601 230.003 189.31 229.695 189.101 229.332C188.892 228.97 188.771 228.563 188.748 228.146V129.815C188.748 129.057 189.291 128.737 189.951 129.119Z" fill="white"/>
<path d="M250.23 265.232C249.984 265.222 249.745 265.15 249.534 265.023L189.798 230.538C189.392 230.28 189.053 229.928 188.811 229.511C188.569 229.095 188.431 228.627 188.408 228.146V129.814C188.38 129.603 188.416 129.389 188.51 129.198C188.605 129.007 188.754 128.848 188.938 128.742C189.123 128.635 189.335 128.586 189.547 128.6C189.76 128.614 189.963 128.69 190.132 128.82L249.868 163.305C250.275 163.563 250.614 163.915 250.856 164.331C251.098 164.748 251.236 165.217 251.259 165.698V264.029C251.275 264.239 251.235 264.45 251.142 264.64C251.049 264.829 250.907 264.991 250.73 265.107C250.578 265.193 250.405 265.236 250.23 265.232ZM189.416 129.3C189.367 129.299 189.319 129.311 189.277 129.335C189.209 129.393 189.157 129.468 189.125 129.552C189.094 129.635 189.084 129.726 189.096 129.814V228.146C189.118 228.503 189.222 228.85 189.401 229.16C189.579 229.47 189.827 229.735 190.125 229.933L249.861 264.425C249.92 264.504 250.006 264.558 250.102 264.578C250.198 264.598 250.298 264.583 250.384 264.534C250.469 264.485 250.534 264.407 250.566 264.314C250.598 264.221 250.594 264.12 250.557 264.029V165.698C250.534 165.34 250.429 164.992 250.25 164.682C250.07 164.372 249.82 164.107 249.52 163.91L189.785 129.418C189.674 129.347 189.547 129.307 189.416 129.3Z" fill="#E0E0E0"/>
<path d="M195.89 142.339L223.95 158.542C224.381 158.811 224.742 159.178 225.004 159.613C225.267 160.048 225.423 160.539 225.459 161.045C225.459 161.942 224.764 162.283 223.95 161.803L195.89 145.6C195.46 145.332 195.1 144.966 194.838 144.532C194.575 144.099 194.419 143.609 194.381 143.104C194.395 142.2 195.07 141.859 195.89 142.339Z" fill="#E0E0E0"/>
<path d="M195.89 152.123L243.728 179.738C244.156 180.009 244.515 180.377 244.776 180.811C245.037 181.246 245.192 181.736 245.23 182.242C245.23 183.146 244.534 183.486 243.728 183.006L195.89 155.385C195.46 155.116 195.1 154.751 194.838 154.317C194.575 153.883 194.419 153.394 194.381 152.888C194.395 152.005 195.07 151.643 195.89 152.123Z" fill="#E0E0E0"/>
<path d="M195.89 161.915L243.742 189.557C244.17 189.827 244.529 190.193 244.79 190.627C245.051 191.06 245.206 191.549 245.244 192.054C245.244 192.958 244.548 193.299 243.742 192.819L195.89 165.176C195.46 164.907 195.098 164.54 194.836 164.105C194.574 163.67 194.418 163.179 194.381 162.673C194.395 161.776 195.07 161.435 195.89 161.915Z" fill="#E0E0E0"/>
<path d="M195.89 171.699L243.742 199.293C244.17 199.563 244.529 199.929 244.79 200.363C245.051 200.796 245.206 201.285 245.244 201.79C245.244 202.694 244.548 203.034 243.742 202.555L195.89 174.954C195.46 174.685 195.098 174.318 194.836 173.883C194.574 173.448 194.418 172.957 194.381 172.45C194.395 171.56 195.07 171.219 195.89 171.699Z" fill="#E0E0E0"/>
<path d="M195.89 181.484L243.728 209.098C244.157 209.369 244.516 209.736 244.777 210.171C245.038 210.606 245.193 211.096 245.23 211.602C245.23 212.499 244.534 212.84 243.728 212.36L195.89 184.745C195.46 184.477 195.1 184.111 194.838 183.677C194.575 183.243 194.419 182.754 194.381 182.248C194.395 181.344 195.07 181.004 195.89 181.484Z" fill="#E0E0E0"/>
<path d="M195.89 191.268L243.728 218.883C244.157 219.153 244.516 219.52 244.777 219.955C245.038 220.39 245.193 220.88 245.23 221.386C245.23 222.283 244.534 222.624 243.728 222.144L195.89 194.529C195.46 194.261 195.1 193.895 194.838 193.461C194.575 193.028 194.419 192.538 194.381 192.033C194.395 191.129 195.07 190.788 195.89 191.268Z" fill="#E0E0E0"/>
<path d="M195.89 201.052L243.728 228.667C244.157 228.937 244.516 229.305 244.777 229.74C245.038 230.175 245.193 230.665 245.23 231.171C245.23 232.075 244.534 232.415 243.728 231.936L195.89 204.314C195.46 204.045 195.1 203.68 194.838 203.246C194.575 202.812 194.419 202.323 194.381 201.817C194.395 200.913 195.07 200.573 195.89 201.052Z" fill="#E0E0E0"/>
<path d="M195.89 210.844L243.728 238.459C244.156 238.728 244.515 239.094 244.776 239.528C245.037 239.962 245.192 240.45 245.23 240.955C245.23 241.859 244.534 242.2 243.728 241.72L195.89 214.105C195.46 213.836 195.098 213.469 194.836 213.034C194.574 212.599 194.418 212.108 194.381 211.602C194.395 210.705 195.07 210.364 195.89 210.844Z" fill="#E0E0E0"/>
<path d="M239.597 262.158L225.793 187.214C225.534 186.154 224.883 185.232 223.971 184.634L139.416 135.816C138.589 135.336 138.025 135.719 138.227 136.657L151.718 209.891C151.977 210.951 152.628 211.872 153.54 212.471L239.597 262.158Z" fill="#A480F2"/>
<path d="M135.077 170.934V219.613C135.105 220.136 135.257 220.644 135.519 221.098C135.781 221.551 136.147 221.936 136.586 222.221L170.292 241.692C170.728 241.966 171.23 242.115 171.745 242.124C172.26 242.134 172.767 242.003 173.212 241.745C173.658 241.488 174.025 241.114 174.274 240.663C174.523 240.213 174.644 239.703 174.625 239.189V190.503C174.596 189.981 174.445 189.473 174.184 189.02C173.923 188.567 173.56 188.182 173.123 187.895L139.409 168.424C138.974 168.151 138.472 168.001 137.958 167.992C137.444 167.982 136.937 168.113 136.492 168.369C136.047 168.626 135.68 168.999 135.43 169.448C135.181 169.898 135.059 170.407 135.077 170.92V170.934Z" fill="#455A64"/>
<path d="M174.625 214.863V190.524C174.607 190.001 174.456 189.491 174.187 189.043L169.945 191.49V241.56L170.292 241.762C170.741 241.999 171.239 242.127 171.747 242.135C172.254 242.144 172.757 242.033 173.213 241.81C173.629 241.524 173.971 241.144 174.213 240.7C174.454 240.257 174.588 239.763 174.604 239.258L174.625 214.863Z" fill="#263238"/>
<path d="M136.586 170.086L170.292 189.557C170.731 189.842 171.097 190.227 171.359 190.68C171.621 191.134 171.773 191.642 171.801 192.165V240.879C171.801 241.838 171.106 242.228 170.292 241.748L136.586 222.276C136.147 221.991 135.781 221.606 135.519 221.153C135.257 220.7 135.105 220.191 135.077 219.669V170.99C135.077 169.974 135.751 169.585 136.586 170.086Z" fill="#37474F"/>
<path d="M139.409 174.954L167.469 191.15C167.907 191.436 168.272 191.821 168.534 192.274C168.796 192.727 168.948 193.235 168.978 193.758V229.425C168.978 230.385 168.282 230.774 167.469 230.294L139.409 214.091C138.97 213.806 138.604 213.421 138.342 212.968C138.08 212.515 137.928 212.006 137.9 211.484V175.83C137.9 174.87 138.574 174.481 139.409 174.954Z" fill="white"/>
<path d="M144.694 183.299C145.665 183.932 146.472 184.786 147.051 185.79C147.629 186.794 147.963 187.92 148.025 189.077C148.025 191.205 146.537 192.068 144.694 191.004C143.723 190.37 142.914 189.517 142.334 188.513C141.755 187.509 141.419 186.383 141.356 185.225C141.356 183.083 142.851 182.221 144.694 183.299Z" fill="#A480F2"/>
<path d="M158.943 195.962L151.989 206.184L146.739 198.271C146.583 197.979 146.353 197.732 146.073 197.555C145.793 197.378 145.472 197.277 145.141 197.262C144.81 197.246 144.481 197.317 144.186 197.467C143.89 197.617 143.639 197.841 143.456 198.118L137.893 205.072V211.484C137.921 212.006 138.073 212.515 138.335 212.968C138.597 213.421 138.963 213.806 139.402 214.091L167.462 230.294C168.296 230.774 168.971 230.385 168.971 229.425V211.602L161.683 196.178C161.036 194.787 159.805 194.689 158.943 195.962Z" fill="#A480F2"/>
<path opacity="0.2" d="M158.943 195.962L151.989 206.184L146.739 198.271C146.583 197.979 146.353 197.732 146.073 197.555C145.793 197.378 145.472 197.277 145.141 197.262C144.81 197.246 144.481 197.317 144.186 197.467C143.89 197.617 143.639 197.841 143.456 198.118L137.893 205.072V211.484C137.921 212.006 138.073 212.515 138.335 212.968C138.597 213.421 138.963 213.806 139.402 214.091L167.462 230.294C168.296 230.774 168.971 230.385 168.971 229.425V211.602L161.683 196.178C161.036 194.787 159.805 194.689 158.943 195.962Z" fill="black"/>
<path d="M28.936 161.977C39.7754 155.443 48.7419 146.218 54.9656 135.197C61.1894 124.176 64.4591 111.734 64.4576 99.0772V74.3762C64.4576 73.6113 65 73.2983 65.6607 73.6808L128.248 109.8C128.597 110.03 128.888 110.338 129.097 110.701C129.306 111.063 129.427 111.469 129.451 111.887V136.588C129.443 149.188 126.194 161.575 120.016 172.556C113.838 183.538 104.938 192.745 94.1725 199.293C93.7275 199.557 93.2194 199.697 92.7017 199.697C92.1841 199.697 91.676 199.557 91.2309 199.293L28.943 163.382C28.7971 163.332 28.6704 163.237 28.5805 163.112C28.4905 162.987 28.4418 162.836 28.441 162.682C28.4403 162.528 28.4875 162.377 28.5762 162.251C28.6649 162.124 28.7906 162.029 28.936 161.977Z" fill="white"/>
<path d="M92.6983 200.086C92.1213 200.086 91.5547 199.933 91.0571 199.641L28.7692 163.681C28.5715 163.599 28.4026 163.46 28.2838 163.281C28.165 163.103 28.1016 162.894 28.1016 162.68C28.1016 162.465 28.165 162.256 28.2838 162.078C28.4026 161.9 28.5715 161.761 28.7692 161.678C39.5299 155.148 48.4326 145.963 54.6234 135.004C60.8143 124.044 64.0856 111.678 64.1239 99.0912V74.3763C64.1084 74.1659 64.1492 73.9551 64.2421 73.7657C64.335 73.5763 64.4766 73.415 64.6524 73.2984C64.8407 73.2029 65.0513 73.1603 65.2619 73.175C65.4726 73.1896 65.6752 73.2611 65.8485 73.3818L128.435 109.501C128.841 109.759 129.179 110.11 129.421 110.525C129.663 110.94 129.802 111.407 129.826 111.887V136.588C129.781 149.247 126.499 161.684 120.291 172.716C114.084 183.749 105.157 193.01 94.3603 199.62C93.8608 199.927 93.285 200.089 92.6983 200.086ZM29.1169 162.276C28.9082 162.401 28.79 162.547 28.79 162.686C28.79 162.826 28.9082 162.958 29.1169 163.076L91.4048 199.043C91.7969 199.273 92.2435 199.395 92.6983 199.395C93.1531 199.395 93.5997 199.273 93.9918 199.043C104.679 192.49 113.514 183.313 119.655 172.384C125.797 161.456 129.042 149.138 129.082 136.602V111.887C129.059 111.53 128.955 111.183 128.776 110.873C128.598 110.563 128.35 110.298 128.053 110.1L65.466 73.9799C65.3957 73.9262 65.3133 73.8905 65.226 73.876C65.1387 73.8614 65.0492 73.8684 64.9653 73.8964C64.8974 73.9549 64.8453 74.0295 64.8137 74.1133C64.7821 74.1971 64.7721 74.2875 64.7845 74.3763V99.0773C64.746 111.786 61.444 124.272 55.1948 135.338C48.9457 146.404 39.959 155.68 29.096 162.276H29.1169Z" fill="#E0E0E0"/>
<path d="M102.705 104.842L119.472 114.522C119.9 114.792 120.259 115.158 120.52 115.592C120.781 116.025 120.936 116.514 120.974 117.019C120.974 117.923 120.278 118.264 119.472 117.784L102.705 108.104C102.276 107.833 101.916 107.466 101.656 107.031C101.395 106.596 101.24 106.106 101.203 105.6C101.182 104.717 101.857 104.362 102.705 104.842Z" fill="#E0E0E0"/>
<path d="M92.7052 113.757C92.7052 114.654 92.0098 114.995 91.1962 114.515L74.4368 104.842C74.0085 104.573 73.6495 104.206 73.3886 103.773C73.1277 103.339 72.9723 102.85 72.9347 102.346C72.9347 101.442 73.6301 101.101 74.4368 101.581L91.1962 111.254C91.627 111.523 91.9882 111.89 92.2505 112.325C92.5127 112.76 92.6685 113.251 92.7052 113.757Z" fill="#E0E0E0"/>
<path d="M120.132 142.631C120.007 143.458 119.214 143.737 118.38 143.257L73.3798 117.276C72.9707 117.036 72.6361 116.687 72.4127 116.269C72.1893 115.85 72.086 115.378 72.1141 114.905C72.2393 114.077 72.9973 113.792 73.8249 114.272L118.839 140.26C119.251 140.498 119.59 140.845 119.819 141.264C120.047 141.682 120.155 142.155 120.132 142.631Z" fill="#E0E0E0"/>
<path d="M118.276 151.351C118.053 152.123 117.191 152.36 116.356 151.88L71.3562 125.892C70.9606 125.675 70.6423 125.34 70.4455 124.934C70.2486 124.528 70.1829 124.07 70.2574 123.625C70.473 122.846 71.3075 122.603 72.135 123.083L117.142 149.07C117.543 149.287 117.867 149.623 118.07 150.031C118.273 150.44 118.345 150.901 118.276 151.351Z" fill="#E0E0E0"/>
<path d="M115.473 159.515C115.174 160.246 114.249 160.44 113.387 159.961L68.3798 133.98C67.9932 133.782 67.6875 133.456 67.5149 133.058C67.3424 132.66 67.3138 132.214 67.434 131.796C67.5229 131.619 67.65 131.463 67.8062 131.341C67.9623 131.218 68.1437 131.132 68.3373 131.088C68.5308 131.044 68.7317 131.044 68.9254 131.087C69.1192 131.13 69.3009 131.216 69.4577 131.337L114.527 157.325C114.912 157.527 115.215 157.854 115.387 158.253C115.559 158.652 115.59 159.097 115.473 159.515Z" fill="#E0E0E0"/>
<path d="M111.801 167.186C111.555 167.524 111.185 167.751 110.772 167.817C110.359 167.883 109.937 167.784 109.597 167.54L64.5967 141.574C64.221 141.395 63.9281 141.079 63.7781 140.691C63.6281 140.303 63.6323 139.873 63.79 139.488C63.9067 139.319 64.0557 139.175 64.2285 139.065C64.4012 138.955 64.5942 138.88 64.7961 138.845C64.9981 138.81 65.205 138.816 65.4048 138.862C65.6045 138.907 65.7932 138.993 65.9597 139.112L110.967 165.093C111.346 165.27 111.643 165.586 111.798 165.974C111.953 166.363 111.954 166.796 111.801 167.186Z" fill="#E0E0E0"/>
<path d="M85.8137 165.218C85.5063 165.529 85.1007 165.724 84.6658 165.769C84.2309 165.815 83.7937 165.709 83.4284 165.468L58.1989 150.913C58.0193 150.832 57.859 150.714 57.7284 150.567C57.5979 150.42 57.5001 150.246 57.4416 150.058C57.3831 149.87 57.3652 149.672 57.389 149.476C57.4129 149.281 57.478 149.093 57.58 148.924C57.8806 148.611 58.2815 148.412 58.7133 148.362C59.145 148.313 59.5805 148.416 59.9444 148.653L85.1808 163.257C86.0153 163.709 86.3005 164.613 85.8137 165.218Z" fill="#E0E0E0"/>
<path d="M76.5994 178.716C76.5994 178.716 63.3866 187.436 47.5104 188.041C50.744 189.912 58.0389 190.684 63.6717 189.912C63.6717 189.912 62.8859 193.187 57.2044 197.374C57.2044 197.374 66.4534 199.87 83.0667 182.443L76.5994 178.716Z" fill="#A480F2"/>
<path d="M90.5772 181.991C87.7469 184.87 82.0376 185.113 78.1363 182.86C74.235 180.607 73.6231 176.72 76.4534 173.82C79.2837 170.92 84.4715 170.19 88.3728 172.429C92.274 174.668 93.4075 179.126 90.5772 181.991Z" fill="#A480F2"/>
<path opacity="0.2" d="M90.5772 181.991C87.7469 184.87 82.0376 185.113 78.1363 182.86C74.235 180.607 73.6231 176.72 76.4534 173.82C79.2837 170.92 84.4715 170.19 88.3728 172.429C92.274 174.668 93.4075 179.126 90.5772 181.991Z" fill="black"/>
<path d="M90.5772 181.122C87.7469 184.001 82.0376 184.237 78.1363 181.991C74.235 179.745 73.6231 175.844 76.4534 172.951C79.2837 170.058 84.4715 169.314 88.3728 171.56C92.274 173.806 93.4075 178.243 90.5772 181.122Z" fill="#A480F2"/>
<path d="M84.0195 181.414C82.3177 181.432 80.6404 181.008 79.1517 180.183C77.7608 179.383 76.9263 178.34 76.7803 177.234C76.7449 176.716 76.8279 176.196 77.0231 175.714C77.2182 175.232 77.5205 174.801 77.9069 174.453C79.3649 173.076 81.3053 172.327 83.3102 172.367C84.7088 172.354 86.0858 172.712 87.3019 173.403C87.9916 173.755 88.593 174.257 89.0614 174.874C89.5298 175.49 89.853 176.205 90.007 176.963C90.0757 177.457 90.0257 177.96 89.8612 178.43C89.6967 178.901 89.4225 179.325 89.0613 179.668C87.6708 180.882 85.8629 181.508 84.0195 181.414Z" fill="#A480F2"/>
<path opacity="0.3" d="M84.0195 181.414C82.3177 181.432 80.6404 181.008 79.1517 180.183C77.7608 179.383 76.9263 178.34 76.7803 177.234C76.7449 176.716 76.8279 176.196 77.0231 175.714C77.2182 175.232 77.5205 174.801 77.9069 174.453C79.3649 173.076 81.3053 172.327 83.3102 172.367C84.7088 172.354 86.0858 172.712 87.3019 173.403C87.9916 173.755 88.593 174.257 89.0614 174.874C89.5298 175.49 89.853 176.205 90.007 176.963C90.0757 177.457 90.0257 177.96 89.8612 178.43C89.6967 178.901 89.4225 179.325 89.0613 179.668C87.6708 180.882 85.8629 181.508 84.0195 181.414Z" fill="black"/>
<path d="M87.3297 174.258C86.1124 173.57 84.7362 173.213 83.338 173.222C81.3331 173.182 79.3927 173.931 77.9347 175.308C77.3724 175.85 76.9849 176.547 76.822 177.311C76.9801 177.933 77.2732 178.513 77.6806 179.01C78.0881 179.506 78.5998 179.907 79.1795 180.183C80.6682 181.008 82.3455 181.432 84.0473 181.414C85.9011 181.514 87.7204 180.885 89.1169 179.662C89.627 179.166 89.9594 178.516 90.0627 177.812C89.9023 177.053 89.5735 176.339 89.1004 175.724C88.6274 175.109 88.0223 174.608 87.3297 174.258Z" fill="#A480F2"/>
<path opacity="0.2" d="M87.3297 174.258C86.1124 173.57 84.7362 173.213 83.338 173.222C81.3331 173.182 79.3927 173.931 77.9347 175.308C77.3724 175.85 76.9849 176.547 76.822 177.311C76.9801 177.933 77.2732 178.513 77.6806 179.01C78.0881 179.506 78.5998 179.907 79.1795 180.183C80.6682 181.008 82.3455 181.432 84.0473 181.414C85.9011 181.514 87.7204 180.885 89.1169 179.662C89.627 179.166 89.9594 178.516 90.0627 177.812C89.9023 177.053 89.5735 176.339 89.1004 175.724C88.6274 175.109 88.0223 174.608 87.3297 174.258Z" fill="black"/>
</svg>
